<?xml version="1.0" standalone="no"?>
<svg xmlns:xlink="http://www.w3.org/1999/xlink" id="wave" style="transform:rotate(180deg); transition: 0.3s" viewBox="0 0 1440 190" version="1.1" xmlns="http://www.w3.org/2000/svg"><defs><linearGradient id="sw-gradient-0" x1="0" x2="0" y1="1" y2="0"><stop stop-color="rgba(213, 215, 242, 1)" offset="0%"/><stop stop-color="rgba(213, 215, 242, 1)" offset="100%"/></linearGradient></defs><path style="transform:translate(0, 0px); opacity:1" fill="url(#sw-gradient-0)" d="M0,133L40,139.3C80,146,160,158,240,148.8C320,139,400,108,480,91.8C560,76,640,76,720,79.2C800,82,880,89,960,104.5C1040,120,1120,146,1200,152C1280,158,1360,146,1440,123.5C1520,101,1600,70,1680,72.8C1760,76,1840,114,1920,136.2C2000,158,2080,165,2160,139.3C2240,114,2320,57,2400,41.2C2480,25,2560,51,2640,50.7C2720,51,2800,25,2880,25.3C2960,25,3040,51,3120,53.8C3200,57,3280,38,3360,25.3C3440,13,3520,6,3600,9.5C3680,13,3760,25,3840,44.3C3920,63,4000,89,4080,91.8C4160,95,4240,76,4320,72.8C4400,70,4480,82,4560,91.8C4640,101,4720,108,4800,117.2C4880,127,4960,139,5040,142.5C5120,146,5200,139,5280,129.8C5360,120,5440,108,5520,98.2C5600,89,5680,82,5720,79.2L5760,76L5760,190L5720,190C5680,190,5600,190,5520,190C5440,190,5360,190,5280,190C5200,190,5120,190,5040,190C4960,190,4880,190,4800,190C4720,190,4640,190,4560,190C4480,190,4400,190,4320,190C4240,190,4160,190,4080,190C4000,190,3920,190,3840,190C3760,190,3680,190,3600,190C3520,190,3440,190,3360,190C3280,190,3200,190,3120,190C3040,190,2960,190,2880,190C2800,190,2720,190,2640,190C2560,190,2480,190,2400,190C2320,190,2240,190,2160,190C2080,190,2000,190,1920,190C1840,190,1760,190,1680,190C1600,190,1520,190,1440,190C1360,190,1280,190,1200,190C1120,190,1040,190,960,190C880,190,800,190,720,190C640,190,560,190,480,190C400,190,320,190,240,190C160,190,80,190,40,190L0,190Z"/></svg>